<?xml version="1.0" standalone="no"?>
<!DOCTYPE svg PUBLIC "-//W3C//DTD SVG 20010904//EN"
 "http://www.w3.org/TR/2001/REC-SVG-20010904/DTD/svg10.dtd">
<svg version="1.0" xmlns="http://www.w3.org/2000/svg"
 width="64.000000pt" height="64.000000pt" viewBox="0 0 64.000000 64.000000"
 preserveAspectRatio="xMidYMid meet">

<g transform="translate(0.000000,64.000000) scale(0.100000,-0.100000)"
fill="#000000" stroke="none">
<path d="M304 614 c9 -23 -3 -37 -20 -23 -11 9 -14 8 -14 -5 0 -10 5 -27 11
-38 8 -15 8 -19 0 -14 -7 4 -11 -1 -11 -12 0 -22 25 -32 83 -32 20 0 37 -4 37
-10 0 -5 -7 -10 -16 -10 -8 0 -12 -5 -9 -10 4 -6 11 -7 17 -4 7 5 9 -2 4 -20
-4 -18 -3 -25 4 -21 17 10 11 -7 -7 -22 -16 -13 -15 -14 11 -8 27 6 28 5 16
-10 -12 -15 -12 -17 5 -15 39 4 47 1 40 -20 -4 -11 -2 -20 4 -20 6 0 11 5 11
10 0 6 7 10 15 10 8 0 15 -4 15 -9 0 -5 12 -8 28 -7 18 2 28 10 29 22 2 10 0
13 -3 7 -8 -19 -24 -16 -25 5 0 10 -3 12 -6 5 -7 -19 -33 -16 -33 5 0 14 -2
15 -10 2 -8 -13 -11 -11 -16 7 -4 14 -11 20 -21 16 -12 -5 -14 -1 -8 18 7 21
6 22 -9 10 -9 -8 -16 -9 -16 -3 0 6 5 14 10 17 6 3 10 11 10 17 0 7 -6 6 -15
-2 -9 -8 -15 -9 -15 -2 0 6 5 14 10 17 6 3 10 11 10 16 0 6 -4 7 -10 4 -5 -3
-10 -2 -10 3 0 6 7 13 16 16 12 5 14 15 9 53 -7 47 -29 78 -47 67 -6 -4 -8
-15 -5 -25 3 -12 0 -19 -9 -19 -14 0 -18 12 -15 38 1 7 -9 12 -25 12 -20 0
-25 -4 -20 -16z"/>
<path d="M38 407 c6 -7 7 -18 3 -26 -6 -9 -10 -10 -15 -2 -4 6 -11 9 -16 6
-10 -6 -1 -47 14 -58 7 -6 4 -7 -7 -3 -24 8 -22 -20 2 -34 11 -5 38 -10 60
-10 23 0 41 -4 41 -10 0 -5 -4 -10 -10 -10 -5 0 -10 -5 -10 -10 0 -6 3 -9 8
-9 20 3 23 -2 11 -18 -13 -15 -11 -16 14 -9 17 4 27 2 27 -4 0 -6 -4 -8 -10
-5 -5 3 -10 1 -10 -4 0 -6 -7 -11 -15 -11 -8 0 -15 -5 -15 -10 0 -6 11 -8 28
-4 26 6 27 6 7 -10 -20 -17 -19 -17 7 -13 16 2 33 -2 39 -9 9 -11 8 -14 0 -14
-7 0 -9 -5 -5 -11 5 -8 9 -7 14 1 5 8 15 10 26 5 30 -13 58 -13 66 -1 13 19 9
29 -7 16 -11 -9 -15 -9 -15 -1 0 7 -9 9 -25 5 -20 -5 -24 -3 -19 10 3 9 1 16
-5 16 -6 0 -11 -5 -11 -11 0 -5 -5 -7 -11 -4 -6 4 -8 14 -5 22 5 11 2 13 -10
9 -12 -4 -14 -1 -9 14 4 11 2 20 -4 20 -6 0 -11 8 -11 18 0 14 -2 15 -10 2 -6
-10 -9 -5 -8 18 1 18 5 35 10 38 4 3 8 27 7 53 -2 36 -7 51 -22 60 -22 14 -27
11 -30 -18 -1 -11 -5 -21 -9 -21 -4 0 -8 -9 -8 -21 0 -11 -4 -18 -10 -14 -5 3
-6 15 -1 28 12 35 2 57 -26 57 -20 0 -23 -3 -15 -13z"/>
<path d="M287 328 c17 -8 43 -53 43 -74 0 -10 -26 -2 -43 13 -18 17 -19 17
-15 -12 3 -30 3 -30 73 -33 78 -3 234 -2 261 2 37 6 23 22 -18 22 -24 0 -89 0
-144 2 l-101 2 -6 29 c-7 34 -32 61 -55 60 -13 0 -12 -3 5 -11z"/>
<path d="M35 106 c43 -43 27 -89 -17 -49 -17 15 -18 15 -18 -4 0 -31 25 -46
62 -39 18 3 38 6 43 5 79 -8 241 -7 251 2 22 18 16 29 -8 20 -13 -4 -77 -6
-144 -3 l-121 4 -19 42 c-10 22 -27 42 -37 44 -14 3 -13 -1 8 -22z"/>
</g>
</svg>
