<?xml version="1.0" standalone="no"?>
<!DOCTYPE svg PUBLIC "-//W3C//DTD SVG 20010904//EN"
 "http://www.w3.org/TR/2001/REC-SVG-20010904/DTD/svg10.dtd">
<svg version="1.0" xmlns="http://www.w3.org/2000/svg"
 width="100.000000pt" height="100.000000pt" viewBox="0 0 100.000000 100.000000"
 preserveAspectRatio="xMidYMid meet">

<g transform="translate(0.000000,100.000000) scale(0.100000,-0.100000)"
fill="#000000" stroke="none">
<path d="M355 745 c-14 -13 -25 -29 -25 -35 0 -5 -11 -10 -25 -10 -29 0 -29 2
-16 -122 7 -64 6 -106 -4 -165 -25 -137 -28 -130 65 -130 61 0 80 3 80 13 0
18 18 18 51 0 17 -9 65 -13 147 -13 l122 0 0 27 c0 14 -7 49 -15 78 -19 64
-52 92 -110 92 -36 0 -48 5 -69 31 -23 27 -26 39 -26 110 0 78 0 79 -25 79
-14 0 -25 5 -25 10 0 21 -49 60 -75 60 -14 0 -37 -11 -50 -25z m87 -12 c29
-26 21 -33 -37 -33 -59 0 -64 4 -38 32 20 22 51 23 75 1z m76 -65 c3 -16 -7
-18 -107 -18 -105 0 -111 1 -111 20 0 20 5 21 107 18 93 -3 108 -5 111 -20z
m37 -184 c8 -6 38 -14 67 -17 61 -8 86 -29 95 -80 l6 -37 -212 0 c-204 0 -211
1 -211 20 0 19 7 20 166 20 l166 0 -14 23 c-9 12 -24 24 -34 26 -27 5 -84 70
-84 96 0 38 13 37 26 -2 7 -21 20 -43 29 -49z"/>
</g>
</svg>
